<svg width="18" height="18" viewBox="0 0 18 18" fill="none" xmlns="http://www.w3.org/2000/svg">
<path d="M11.6765 6.05884C12.8699 6.05884 14.0145 6.53294 14.8584 7.37686C15.7023 8.22077 16.1765 9.36536 16.1765 10.5588V15.8088H13.1765V10.5588C13.1765 10.161 13.0184 9.77948 12.7371 9.49818C12.4558 9.21687 12.0743 9.05884 11.6765 9.05884C11.2786 9.05884 10.8971 9.21687 10.6158 9.49818C10.3345 9.77948 10.1765 10.161 10.1765 10.5588V15.8088H7.17645V10.5588C7.17645 9.36536 7.65056 8.22077 8.49447 7.37686C9.33839 6.53294 10.483 6.05884 11.6765 6.05884Z" stroke="white" stroke-width="1.5" stroke-linecap="round" stroke-linejoin="round"/>
<path d="M5.17645 6.80887H2.17645V15.8089H5.17645V6.80887Z" stroke="white" stroke-width="1.5" stroke-linecap="round" stroke-linejoin="round"/>
<path d="M3.67645 5.05884C4.50488 5.05884 5.17645 4.38727 5.17645 3.55884C5.17645 2.73041 4.50488 2.05884 3.67645 2.05884C2.84803 2.05884 2.17645 2.73041 2.17645 3.55884C2.17645 4.38727 2.84803 5.05884 3.67645 5.05884Z" stroke="white" stroke-width="1.5" stroke-linecap="round" stroke-linejoin="round"/>
</svg>
